<?xml version="1.0" standalone="no"?>
<!DOCTYPE svg PUBLIC "-//W3C//DTD SVG 20010904//EN"
 "http://www.w3.org/TR/2001/REC-SVG-20010904/DTD/svg10.dtd">
<svg version="1.0" xmlns="http://www.w3.org/2000/svg"
 width="1200.000000pt" height="500.000000pt" viewBox="0 0 1200.000000 500.000000"
 preserveAspectRatio="xMidYMid meet">

<g transform="translate(0.000000,500.000000) scale(0.100000,-0.100000)"
fill="#000000" stroke="none">
<path d="M140 3721 c0 -7 90 -61 130 -78 14 -5 43 -18 65 -28 22 -10 51 -21
65 -25 14 -5 70 -25 125 -45 55 -20 114 -40 130 -45 17 -4 64 -19 105 -33 41
-13 109 -35 150 -47 41 -13 113 -35 160 -50 47 -15 135 -40 195 -54 466 -115
519 -132 672 -207 176 -87 235 -162 279 -359 8 -36 17 -74 19 -85 3 -11 10
-47 15 -80 72 -407 103 -461 361 -612 98 -58 158 -81 92 -36 -203 139 -281
240 -303 391 -76 534 -105 631 -226 741 -68 62 -203 130 -339 171 -55 17 -107
33 -115 36 -8 4 -24 8 -35 9 -48 7 -770 187 -865 215 -36 11 -130 38 -210 60
-181 50 -328 100 -409 138 -33 16 -61 26 -61 23z"/>
<path d="M6643 3689 c-91 -42 -227 -85 -483 -156 -30 -8 -68 -19 -85 -25 -41
-13 -172 -47 -220 -58 -22 -4 -62 -15 -90 -23 -27 -8 -113 -30 -190 -47 -77
-18 -200 -48 -273 -66 -73 -19 -136 -33 -140 -32 -4 1 -14 -2 -22 -5 -8 -4
-60 -20 -115 -37 -225 -69 -373 -171 -433 -300 -49 -105 -92 -303 -112 -513
-19 -214 -75 -310 -255 -445 -38 -28 -78 -52 -87 -52 -31 0 -213 250 -282 388
-44 86 -106 239 -106 258 0 7 21 23 48 35 152 69 290 193 335 302 19 44 36
130 37 182 1 58 -26 168 -51 207 -12 18 -18 24 -14 13 35 -93 45 -136 45 -194
-1 -180 -87 -320 -265 -434 -38 -24 -81 -48 -95 -52 -14 -4 -37 -14 -52 -21
l-27 -14 28 -67 c49 -117 121 -264 164 -332 115 -183 267 -356 406 -458 33
-25 58 -49 56 -53 -3 -5 -20 -12 -38 -15 -88 -19 -366 -143 -464 -207 -64 -41
-90 -76 -30 -40 116 72 234 130 347 172 47 18 101 38 120 45 19 8 46 16 60 19
28 6 57 23 50 28 -150 110 -260 202 -260 218 0 3 21 17 48 30 83 41 208 129
257 181 59 63 96 146 123 279 88 428 95 456 124 513 33 66 69 105 133 146 138
88 296 143 643 226 167 41 298 78 475 136 31 10 65 19 75 19 10 0 22 4 28 9 5
5 34 16 64 24 54 15 309 104 425 148 33 13 83 36 110 53 60 35 59 35 54 40 -2
1 -32 -10 -66 -25z"/>
<path d="M3205 3599 c-121 -13 -365 -72 -399 -97 -6 -5 -46 -23 -88 -42 -43
-18 -78 -36 -78 -39 0 -4 28 -20 63 -36 l62 -30 0 -365 0 -365 -84 -1 -84 0
-17 -55 c-9 -30 -22 -64 -29 -76 -14 -27 -10 -28 55 -8 27 8 75 18 107 21 l58
7 -3 -48 -3 -49 -73 -17 c-75 -19 -121 -38 -92 -39 9 0 49 9 89 20 40 12 75
19 77 17 2 -1 4 -113 4 -248 2 -277 12 -239 -98 -342 -34 -32 -62 -60 -62 -63
0 -2 131 -4 290 -4 160 0 290 1 290 3 0 2 -34 39 -75 83 l-75 79 3 325 2 325
45 7 c25 3 79 11 120 17 41 5 99 15 129 21 72 14 68 15 91 -29 15 -30 17 -41
7 -48 -19 -15 -138 -51 -192 -58 -27 -3 -62 -9 -77 -11 l-28 -6 0 -286 0 -287
100 -105 c55 -58 100 -108 100 -112 0 -5 -151 -8 -335 -8 -223 0 -335 -3 -335
-10 0 -6 6 -13 13 -15 6 -3 171 -4 366 -3 l355 3 -119 127 -119 126 0 277 c-1
268 0 276 19 280 67 13 203 48 231 60 40 17 42 15 81 -90 96 -254 154 -472
205 -770 11 -66 22 -122 23 -123 2 -2 36 15 75 38 94 55 261 137 296 146 15 4
38 13 51 19 l24 12 -38 33 c-169 146 -390 472 -508 750 -15 36 -34 79 -43 96
-20 41 -13 56 34 72 196 66 318 152 387 273 88 156 49 367 -88 479 -119 97
-256 149 -447 169 -108 12 -147 12 -263 0z m226 -99 c75 -14 155 -55 212 -109
78 -73 107 -142 107 -257 0 -157 -73 -269 -230 -352 -70 -37 -188 -79 -242
-86 -13 -2 -30 -6 -38 -9 -8 -4 -28 -8 -43 -9 l-28 -3 -3 347 -2 347 25 7 c92
24 311 5 350 -30 10 -9 22 -16 28 -16 6 0 27 -11 48 -25 47 -33 56 -26 14 9
-97 82 -284 118 -438 85 l-51 -11 -2 -356 -3 -357 -47 -3 -48 -3 0 395 0 394
43 16 c95 36 239 46 348 26z"/>
<path d="M3255 3190 c3 -5 16 -10 28 -10 18 0 19 2 7 10 -20 13 -43 13 -35 0z"/>
<path d="M3510 3163 c0 -31 20 -40 39 -16 9 10 25 24 36 30 17 10 12 11 -27
10 -42 -2 -48 -5 -48 -24z"/>
<path d="M3305 3110 c3 -5 15 -10 25 -10 10 0 23 -7 28 -16 8 -15 10 -15 16 1
9 25 -1 35 -40 35 -21 0 -33 -4 -29 -10z"/>
<path d="M275 3510 c-17 -54 22 -108 125 -172 111 -69 461 -190 680 -233 266
-54 655 -160 802 -220 58 -24 126 -72 177 -125 20 -21 22 -22 13 -4 -16 31
-109 112 -156 137 -70 37 -304 119 -456 161 -52 14 -176 49 -275 76 -99 28
-191 53 -205 55 -109 23 -359 110 -475 165 -75 36 -113 61 -148 99 -26 27 -47
57 -47 66 0 22 -28 18 -35 -5z"/>
<path d="M6544 3495 c-9 -19 -34 -50 -54 -68 -76 -65 -289 -153 -530 -220 -30
-9 -86 -24 -125 -35 -38 -11 -133 -37 -210 -57 -77 -20 -178 -49 -225 -63 -47
-14 -92 -26 -100 -27 -8 -1 -28 -7 -43 -14 -16 -6 -34 -11 -42 -11 -8 0 -16
-4 -20 -9 -3 -5 -20 -13 -38 -16 -85 -19 -241 -95 -294 -144 -71 -67 -78 -85
-11 -29 80 68 77 66 208 111 202 69 528 157 583 157 13 0 38 7 53 15 16 8 37
15 47 15 74 0 499 129 643 195 82 37 175 104 193 138 15 28 11 89 -6 94 -6 2
-19 -12 -29 -32z"/>
<path d="M425 3240 c-3 -5 -14 -10 -24 -10 -26 0 -71 -38 -71 -59 0 -33 90
-95 157 -107 21 -4 43 -10 48 -14 6 -4 28 -10 50 -13 22 -3 94 -15 160 -26 66
-11 201 -29 300 -41 203 -24 454 -63 533 -84 28 -8 52 -10 52 -5 0 5 -10 9
-23 9 -13 0 -28 5 -33 10 -6 6 -37 15 -70 21 -32 6 -79 15 -104 20 -25 5 -90
16 -145 24 -55 8 -125 19 -155 24 -30 6 -111 18 -180 27 -282 36 -490 91 -531
140 -17 20 -3 44 39 65 17 9 29 19 25 23 -9 9 -21 7 -28 -4z"/>
<path d="M6405 3240 c-3 -5 0 -10 8 -10 22 0 67 -40 67 -59 0 -20 -70 -61
-135 -79 -107 -30 -247 -56 -435 -82 -47 -6 -123 -17 -170 -25 -47 -8 -112
-17 -145 -20 -33 -4 -74 -11 -91 -16 -16 -5 -68 -16 -114 -24 -46 -8 -89 -20
-94 -26 -8 -9 -2 -10 24 -4 102 21 268 47 420 65 523 61 703 103 778 183 31
33 19 55 -45 83 -62 28 -60 27 -68 14z"/>
<path d="M387 3012 c-23 -25 -22 -32 13 -74 35 -43 120 -78 249 -103 80 -15
649 -39 690 -28 9 2 52 -1 96 -7 44 -6 96 -13 115 -16 51 -7 187 -42 228 -60
19 -8 37 -12 40 -9 8 7 6 8 -92 50 -86 36 -165 58 -276 76 -103 16 -115 17
-560 39 -233 11 -279 15 -322 29 -18 5 -51 14 -74 20 -53 14 -98 54 -89 81 8
25 3 25 -18 2z"/>
<path d="M6460 3006 c0 -31 -39 -62 -94 -77 -22 -6 -55 -15 -72 -20 -51 -15
-138 -21 -614 -44 -234 -11 -410 -44 -552 -103 -49 -20 -88 -41 -88 -46 0 -4
8 -5 18 -1 39 17 245 71 282 74 8 0 47 5 85 10 39 5 183 10 322 10 138 1 264
3 280 6 15 3 55 7 88 9 237 18 408 105 365 185 -14 27 -20 27 -20 -3z"/>
<path d="M5243 2893 c-23 -9 -14 -20 12 -15 14 2 25 8 25 13 0 10 -17 11 -37
2z"/>
<path d="M1655 2870 c3 -5 8 -10 11 -10 2 0 4 5 4 10 0 6 -5 10 -11 10 -5 0
-7 -4 -4 -10z"/>
<path d="M5155 2860 c-35 -17 -36 -19 -10 -13 35 7 87 32 65 32 -8 0 -33 -9
-55 -19z"/>
<path d="M1698 2853 c7 -3 16 -2 19 1 4 3 -2 6 -13 5 -11 0 -14 -3 -6 -6z"/>
<path d="M1746 2835 c10 -8 24 -14 29 -14 6 0 1 6 -9 14 -11 8 -24 15 -30 15
-5 0 -1 -7 10 -15z"/>
<path d="M5081 2826 c-10 -12 -8 -13 8 -9 12 3 21 9 21 14 0 14 -16 11 -29 -5z"/>
<path d="M422 2810 c-18 -30 -15 -59 13 -106 79 -134 317 -186 655 -144 47 6
128 15 180 20 52 5 131 15 175 21 44 6 143 13 220 16 l140 6 -85 13 c-47 7
-100 11 -119 9 -19 -2 -91 -7 -160 -10 -69 -4 -164 -12 -211 -20 -47 -7 -94
-13 -105 -13 -11 -1 -85 -5 -165 -10 -131 -9 -260 -4 -344 13 -46 9 -98 41
-141 85 -36 37 -40 46 -40 90 0 28 0 50 0 50 0 0 -6 -9 -13 -20z"/>
<path d="M6431 2802 c14 -40 -17 -102 -71 -141 -38 -28 -55 -35 -134 -61 -43
-14 -308 -17 -406 -4 -30 3 -62 6 -70 6 -8 -1 -60 5 -115 13 -198 27 -395 33
-535 17 l-75 -9 120 -2 c66 -1 170 -8 230 -16 61 -8 155 -19 210 -25 55 -5
134 -14 176 -19 271 -34 437 -19 573 53 43 22 67 43 88 75 31 50 37 111 13
131 -13 11 -13 8 -4 -18z"/>
<path d="M2141 2762 c-1 -31 -20 -64 -32 -56 -6 3 -7 -4 -4 -18 9 -35 -8 -70
-60 -123 -102 -105 -149 -181 -164 -265 l-6 -35 -60 -1 c-64 -1 -82 -8 -201
-80 -118 -71 -257 -93 -384 -59 l-55 14 28 -22 c37 -31 103 -47 193 -47 109 0
170 21 274 96 49 35 101 69 115 74 29 11 70 7 89 -9 16 -14 40 -86 33 -99 -4
-5 -32 -12 -63 -15 -31 -3 -63 -12 -73 -20 -80 -71 -295 -110 -400 -72 -59 21
-51 2 12 -25 42 -19 70 -23 147 -22 81 0 104 4 155 27 33 15 81 42 107 61 26
18 66 37 88 40 38 6 44 4 81 -32 22 -21 37 -44 35 -51 -3 -8 2 -13 14 -13 11
0 34 -13 51 -28 l31 -28 -46 -42 c-41 -38 -51 -42 -96 -42 -27 0 -50 -4 -50
-10 0 -15 94 -12 125 4 15 8 38 31 52 51 17 25 30 35 41 31 10 -3 44 -15 77
-26 83 -30 196 -50 287 -52 102 -2 109 7 11 16 -245 22 -449 149 -504 314 -31
95 -13 162 76 283 64 86 95 158 94 217 0 51 -17 108 -18 64z"/>
<path d="M4706 2748 c-18 -71 16 -166 98 -275 61 -81 90 -161 81 -226 -3 -27
-10 -56 -14 -65 -5 -10 -15 -30 -22 -46 -26 -56 -139 -149 -229 -189 -62 -28
-173 -56 -255 -65 l-80 -9 86 -2 c122 -2 234 19 333 62 l48 21 37 -41 c20 -23
46 -46 58 -52 27 -14 113 -14 113 -1 0 6 -22 10 -49 10 -43 0 -54 5 -92 40
-48 44 -48 57 2 87 37 22 72 11 120 -40 69 -71 84 -77 174 -75 l80 2 -70 3
c-73 4 -84 10 -165 82 -19 17 -40 31 -46 31 -5 0 -19 6 -29 14 -17 12 -17 15
15 55 47 58 99 55 181 -10 21 -17 67 -42 101 -56 83 -33 230 -34 302 -3 59 27
67 41 13 25 -64 -19 -190 -19 -250 0 -64 20 -91 33 -139 64 -23 14 -61 26 -95
30 -63 7 -60 3 -46 74 7 36 39 56 81 51 41 -5 76 -23 139 -72 96 -76 170 -102
293 -102 64 1 98 6 139 23 72 29 82 52 14 32 -61 -19 -182 -19 -252 0 -30 8
-91 36 -135 63 -107 64 -138 76 -201 74 l-53 -1 -7 40 c-13 76 -94 203 -174
274 -45 39 -66 88 -50 117 9 18 9 20 -4 15 -16 -6 -27 11 -27 44 0 26 -16 24
-24 -3z"/>
<path d="M1625 2530 c-22 -5 -60 -16 -85 -25 -404 -149 -514 -172 -703 -145
-103 15 -197 73 -233 142 -25 48 -27 25 -4 -30 25 -58 74 -101 158 -140 54
-25 66 -26 207 -26 130 0 160 3 225 24 83 26 233 82 295 111 79 36 149 58 221
71 44 7 69 15 61 20 -15 10 -89 8 -142 -2z"/>
<path d="M5096 2531 c-3 -5 25 -14 62 -21 89 -16 147 -34 262 -85 221 -98 307
-119 480 -119 141 -1 147 0 210 30 79 37 132 81 155 130 23 50 14 63 -15 20
-57 -85 -182 -136 -334 -136 -119 0 -232 25 -428 96 -97 35 -203 71 -234 79
-64 17 -150 20 -158 6z"/>
<path d="M1685 2388 c-61 -15 -213 -64 -275 -88 -175 -69 -355 -90 -471 -55
-22 7 -23 6 -8 -9 21 -22 110 -47 179 -50 33 -2 93 7 150 21 118 29 134 35
195 63 52 23 204 88 235 100 35 13 63 31 45 29 -6 -1 -28 -6 -50 -11z"/>
<path d="M5125 2393 c6 -6 26 -16 45 -23 37 -13 61 -23 150 -63 30 -13 82 -34
115 -47 33 -12 76 -29 95 -36 94 -36 225 -46 315 -25 52 12 111 39 103 46 -2
1 -36 -3 -77 -10 -60 -11 -92 -11 -170 0 -86 12 -270 64 -296 85 -12 9 -131
45 -200 60 -27 6 -59 13 -70 16 -13 4 -16 3 -10 -3z"/>
<path d="M1876 1945 l-59 -55 -76 -2 -76 -2 74 -3 c91 -5 114 4 177 68 66 67
34 62 -40 -6z"/>
</g>
</svg>
